# File created by Blade
# Date/Time:  Thu Jan 22 19:34:15 2015
# Frame Rate: 120.000 fps
#------------------------------------------------------
:FULLY-SPECIFIED
:DEGREES
1446
root -6.604629 31.864223 -3.351434 8.799822 -10.192023 1.267217
RightUpLeg -27.121093 -6.635922 -16.843092
RightLeg 43.649044 -0.000000 -0.000000
RightFoot -5.328429 -15.480840 -9.385147
RightToeBase 3.843125 -0.000000 -0.000000
LeftUpLeg -20.268883 0.805177 -2.392325
LeftLeg 36.379303 -0.000000 -0.000000
LeftFoot -27.466882 2.294047 -15.331063
LeftToeBase 7.748922 -0.000000 -0.000000
Spine -1.771641 -1.477327 1.315440
RightShoulder -21.758169 -20.405242 -11.938706
RightArm 9.426435 24.802827 71.450543
RightForeArm -9.672802 -0.000000 57.536468
RightHand 15.135181 -0.000000 -12.643075
RightHandThumb1 -24.326973 -0.000000 -32.862282
LeftShoulder -23.177879 9.251931 17.358050
LeftArm 0.511485 -11.731157 -85.905841
LeftForeArm 14.818014 -0.000000 51.512698
LeftHand -4.052639 -0.000000 5.980676
LeftHandThumb1 -26.253704 0.000000 33.147579
Head -36.638902 9.618210 -11.523684
1447
root -6.511187 31.930275 -3.350203 8.718527 -10.395775 1.241497
RightUpLeg -28.216738 -6.080575 -16.923093
RightLeg 46.041848 -0.000000 -0.000000
RightFoot -5.988634 -15.275590 -10.013484
RightToeBase 2.974787 -0.000000 -0.000000
LeftUpLeg -19.789752 0.880994 -2.573792
LeftLeg 35.519355 -0.000000 -0.000000
LeftFoot -27.144756 2.648023 -15.112332
LeftToeBase 7.819011 -0.000000 -0.000000
Spine -1.654597 -1.316843 1.311779
RightShoulder -21.933299 -20.412629 -11.859867
RightArm 9.476046 25.573815 71.339119
RightForeArm -9.610831 -0.000000 58.312866
RightHand 15.054837 -0.000000 -12.843589
RightHandThumb1 -24.326973 -0.000000 -32.862282
LeftShoulder -23.199768 9.428307 17.636477
LeftArm 0.063543 -12.335594 -85.403041
LeftForeArm 14.485535 -0.000000 53.744903
LeftHand -4.183353 0.000000 5.503094
LeftHandThumb1 -26.253704 0.000000 33.147579
Head -36.500833 9.921754 -11.169508
1448
root -6.422083 31.999788 -3.346546 8.632131 -10.618545 1.269729
RightUpLeg -29.345162 -5.535728 -16.980543
RightLeg 48.545128 -0.000000 -0.000000
RightFoot -6.425288 -15.669244 -10.924439
RightToeBase 2.418427 -0.000000 -0.000000
LeftUpLeg -19.252081 0.672463 -2.792299
LeftLeg 34.547254 -0.000000 -0.000000
LeftFoot -26.832950 3.285142 -15.014492
LeftToeBase 7.843612 -0.000000 -0.000000
Spine -1.553743 -1.155999 1.213345
RightShoulder -22.055177 -20.348211 -11.739323
RightArm 9.367914 26.367368 71.076310
RightForeArm -9.471705 -0.000000 59.277495
RightHand 14.902533 0.000000 -13.008019
RightHandThumb1 -24.326973 -0.000000 -32.862282
LeftShoulder -23.197434 9.547258 17.932504
LeftArm -0.425825 -13.084373 -84.781487
LeftForeArm 14.267261 -0.000000 55.980546
LeftHand -4.350790 -0.000000 4.814305
LeftHandThumb1 -26.253704 0.000000 33.147579
Head -36.339529 10.193532 -10.771073
1449
root -6.340334 32.070752 -3.347322 8.552772 -10.812130 1.231694
RightUpLeg -30.462997 -4.985922 -16.900689
RightLeg 51.097834 -0.000000 -0.000000
RightFoot -6.839900 -16.345883 -11.086178
RightToeBase 1.985940 -0.000000 -0.000000
LeftUpLeg -18.754420 0.425360 -2.933964
LeftLeg 33.637452 -0.000000 -0.000000
LeftFoot -26.531731 3.962509 -14.826098
LeftToeBase 7.875811 -0.000000 -0.000000
Spine -1.436037 -1.034165 1.213002
RightShoulder -22.174668 -20.350982 -11.682100
RightArm 9.341835 27.072794 70.828121
RightForeArm -9.160874 -0.000000 60.274946
RightHand 14.591938 -0.000000 -13.587711
RightHandThumb1 -24.326973 -0.000000 -32.862282
LeftShoulder -23.228983 9.722550 18.196215
LeftArm -0.825908 -13.782533 -84.122860
LeftForeArm 14.021447 -0.000000 58.199045
LeftHand -4.575376 0.000000 4.306013
LeftHandThumb1 -26.253704 0.000000 33.147579
Head -36.205856 10.516354 -10.405877
1450
root -6.265518 32.140421 -3.344936 8.458886 -10.972401 1.181826
RightUpLeg -31.570717 -4.473504 -16.745163
RightLeg 53.787334 -0.000000 -0.000000
RightFoot -7.267366 -17.419414 -10.904613
RightToeBase 2.089403 -0.000000 -0.000000
LeftUpLeg -18.248525 0.037426 -3.046956
LeftLeg 32.752073 -0.000000 -0.000000
LeftFoot -26.230478 4.736460 -14.715007
LeftToeBase 7.874051 -0.000000 -0.000000
Spine -1.311230 -0.997051 1.233987
RightShoulder -22.214079 -20.287014 -11.704851
RightArm 9.213901 27.792697 70.502703
RightForeArm -8.815862 0.000000 61.328908
RightHand 14.390912 -0.000000 -13.858833
RightHandThumb1 -24.326973 -0.000000 -32.862282
LeftShoulder -23.326294 9.943699 18.478636
LeftArm -1.188894 -14.349702 -83.388504
LeftForeArm 13.690734 0.000000 60.331653
LeftHand -4.711587 -0.000000 3.988730
LeftHandThumb1 -26.253704 0.000000 33.147579
Head -36.035350 10.880128 -10.067084
